<?xml version="1.0" standalone="no"?>

<svg version="1.0" xmlns="http://www.w3.org/2000/svg"
 width="500.000000pt" height="500.000000pt" viewBox="0 0 500.000000 500.000000"
 preserveAspectRatio="xMidYMid meet">

<g transform="translate(0.000000,500.000000) scale(0.100000,-0.100000)"
fill="#fff" stroke="none">
<path d="M973 4280 c-39 -10 -96 -30 -125 -44 -128 -61 -249 -199 -298 -341
-24 -69 -24 -77 -30 -505 -3 -306 -8 -441 -17 -455 -19 -33 -81 -87 -209 -183
-135 -101 -164 -141 -164 -224 0 -72 32 -115 195 -260 82 -74 160 -152 172
-173 22 -39 23 -45 23 -415 0 -408 5 -457 56 -571 70 -156 216 -280 384 -324
30 -8 99 -15 153 -15 l97 0 0 190 0 190 -45 0 c-24 0 -67 5 -95 11 -65 14
-133 75 -149 134 -7 26 -11 173 -11 410 0 409 -4 445 -63 564 -22 45 -60 95
-121 158 l-89 93 29 22 c66 49 141 138 177 209 65 130 67 147 67 594 0 368 2
403 19 440 40 86 110 125 224 125 l57 0 0 195 0 195 -82 -1 c-47 0 -114 -8
-155 -19z"/>
<path d="M3790 4106 l0 -196 58 0 c79 0 131 -16 170 -53 69 -65 66 -47 73
-527 5 -414 6 -438 27 -493 44 -119 121 -223 216 -295 l29 -22 -89 -93 c-62
-63 -99 -113 -121 -158 -59 -120 -63 -155 -63 -564 0 -223 -4 -385 -10 -407
-24 -86 -100 -137 -216 -145 l-74 -6 0 -188 0 -189 99 0 c215 0 393 100 504
282 79 130 80 142 87 603 4 366 7 413 23 442 9 18 86 93 170 168 167 148 197
189 197 265 0 83 -30 121 -185 239 -76 58 -152 123 -169 144 l-31 39 -5 431
-5 432 -28 80 c-85 244 -286 390 -554 403 l-103 5 0 -197z"/>
<path d="M2331 3888 c-10 -29 -774 -2186 -847 -2396 l-53 -152 202 0 202 0
131 368 131 367 383 0 383 0 125 -367 125 -368 259 0 c142 0 258 1 258 3 0 1
-204 578 -453 1282 l-452 1280 -193 3 c-192 2 -192 2 -201 -20z m218 -833 c33
-115 90 -302 126 -414 36 -112 65 -208 65 -213 0 -4 -117 -8 -260 -8 -143 0
-260 2 -260 5 0 3 36 123 79 267 44 145 101 341 127 437 33 119 50 168 55 155
4 -11 35 -113 68 -229z"/>
</g>
</svg>
